<svg width="174" height="68" viewBox="0 0 174 68" fill="none" xmlns="http://www.w3.org/2000/svg">
<g clip-path="url(#clip0_188_3170)">
<path d="M46.7098 12.3151C45.5648 12.3151 44.5893 12.6968 43.8048 13.4601C42.999 14.2235 42.6173 15.1777 42.6173 16.3652C42.6173 17.5527 43.0202 18.5069 43.8048 19.2703C44.5893 20.0337 45.5648 20.4154 46.7098 20.4154C47.8549 20.4154 48.8303 20.0337 49.6361 19.2703C50.4207 18.5069 50.8236 17.5527 50.8236 16.3652C50.8236 15.1777 50.4207 14.2235 49.6361 13.4601C48.8303 12.6968 47.8761 12.3151 46.7098 12.3151Z" fill="#32BAAE"/>
<path d="M0.885979 16.2168C0.885979 24.72 7.77758 31.6328 16.302 31.6328H155.491C163.994 31.6328 170.907 24.7412 170.907 16.2168C170.907 7.71359 164.016 0.800781 155.491 0.800781H16.302C7.77758 0.800781 0.885979 7.69239 0.885979 16.2168ZM23.3844 12.1454H16.0051V14.8385H21.4972V18.6553H16.0051V24.6351H10.9583V8.09528H23.3844V12.1666V12.1454ZM36.892 24.6351H25.5261V8.09528H30.5729V20.5638H36.892V24.6351ZM53.3046 22.4722C51.5446 24.105 49.3393 24.932 46.7099 24.932C44.0804 24.932 41.8751 24.105 40.1151 22.4934C38.3551 20.8819 37.4645 18.825 37.4645 16.3652C37.4645 13.9054 38.3551 11.8486 40.1151 10.237C41.8751 8.62541 44.0804 7.79841 46.7099 7.79841C49.3393 7.79841 51.5234 8.6042 53.3046 10.237C55.0858 11.8698 55.9552 13.9054 55.9552 16.3652C55.9552 18.825 55.0646 20.8607 53.3046 22.4934V22.4722ZM72.3466 24.6351L68.869 15.623L65.4126 24.6351H62.3591L56.1885 8.47697L56.4217 8.09528H61.2352L64.2251 17.1922L67.3635 8.09528H70.417L73.5765 17.2558L76.5452 8.09528H81.3587L81.592 8.47697L75.4213 24.6351H72.3678H72.3466ZM155.491 29.4911H79.5139L87.2537 8.96469C88.632 5.33864 92.1096 2.92128 95.9901 2.92128H155.491C162.828 2.92128 168.787 8.87987 168.787 16.2168C168.787 23.5537 162.828 29.5123 155.491 29.5123V29.4911Z" fill="#32BAAE"/>
<path d="M96.8595 22.4086C96.1174 22.9599 95.0995 23.2568 93.7848 23.2568C92.873 23.2568 91.9612 23.0235 91.0918 22.5358C90.2224 22.0481 89.5438 21.3695 89.0985 20.4577H88.9501L87.6778 21.4756V21.624C88.1655 22.663 88.9713 23.4688 90.0952 24.0626C91.219 24.6563 92.4277 24.9532 93.7212 24.9532C95.5872 24.9532 97.0716 24.5079 98.1742 23.6173C99.2769 22.7267 99.8282 21.4968 99.8282 19.9064C99.8282 19.3127 99.6798 18.7825 99.5101 18.3584C99.4253 18.1464 99.2981 17.9343 99.1285 17.7223C98.768 17.277 98.5983 17.0649 98.0894 16.7044C97.835 16.5348 97.6229 16.3864 97.4745 16.3016C97.3048 16.2167 97.0716 16.0895 96.7535 15.9199C96.4354 15.7714 96.2022 15.6654 96.0749 15.6018C95.9477 15.5382 95.6933 15.4322 95.3328 15.2837C94.9723 15.1565 94.739 15.0505 94.6542 15.0081C94.1877 14.796 93.8272 14.6264 93.594 14.5203C93.3395 14.3931 93.0639 14.2235 92.767 14.0114C92.152 13.5661 91.94 13.0572 91.94 12.4211C91.94 11.5516 92.3005 10.8519 93.0426 10.3006C93.7848 9.77043 94.6966 9.49477 95.8205 9.49477C97.5805 9.49477 98.874 10.1733 99.701 11.5516H99.8282L101.058 10.5126V10.3642C100.655 9.6008 99.9767 8.98585 99.0861 8.51934C98.1954 8.05283 97.1564 7.81958 95.9689 7.81958C94.2089 7.81958 92.7882 8.26488 91.7067 9.15549C90.6253 10.0673 90.0952 11.2336 90.0952 12.6755C90.0952 13.7994 90.4768 14.69 91.219 15.3049C91.6007 15.623 91.9188 15.835 92.1944 15.9835C92.4701 16.1531 92.8306 16.3228 93.3183 16.556C93.594 16.662 93.9757 16.8317 94.4634 17.0225C94.9511 17.2346 95.3328 17.4042 95.5872 17.5102C95.8417 17.6375 96.1386 17.7859 96.499 17.998C96.8595 18.21 97.114 18.4008 97.3048 18.5917C97.6441 18.9734 97.9834 19.5459 97.9834 20.2245C97.9834 21.1575 97.6017 21.8997 96.8807 22.451L96.8595 22.4086Z" fill="#32BAAE"/>
<path d="M105.341 18.0828H109.519C111.618 18.0828 113.251 17.5739 114.396 16.5561C115.541 15.5382 116.114 14.1175 116.114 12.2515C116.114 10.958 115.668 9.94013 114.799 9.19796C113.93 8.45579 112.7 8.0741 111.088 8.0741H105.32L102.33 24.6139H104.175L105.341 18.0828ZM106.847 9.72808H111.279C113.145 9.72808 114.205 10.7247 114.205 12.4211C114.205 13.6934 113.845 14.69 113.145 15.4322C112.445 16.1744 111.449 16.5349 110.155 16.5349H105.638L106.847 9.72808Z" fill="#32BAAE"/>
<path d="M113.845 24.6352H115.689L118.064 20.9031H126.78L127.776 24.6352H129.473L129.579 24.4868L125.062 8.09534H124.235L113.76 24.4868L113.802 24.6352H113.845ZM124.193 11.1488L126.356 19.2703H119.082L124.193 11.1488Z" fill="#32BAAE"/>
<path d="M135.368 17.6375H139.015C139.503 17.6375 139.778 17.7859 140.075 18.5917C140.202 18.9946 140.33 19.3551 140.414 19.6307C140.499 19.9064 140.605 20.4789 140.775 21.2847C141.326 23.7233 142.174 24.9532 143.828 24.9532C144.422 24.9532 144.931 24.826 145.355 24.5927L145.44 24.4655L145.292 23.1083L145.207 23.0659C144.889 23.2144 144.549 23.2992 144.168 23.2992C143.574 23.2992 143.192 23.0235 142.917 22.2177C142.768 21.8148 142.662 21.4756 142.599 21.2211C142.535 20.9667 142.429 20.5213 142.323 19.9064C142.068 18.5705 141.772 17.7859 141.411 17.5527C144.592 17.0649 146.309 15.1141 146.309 12.1242C146.309 9.62201 144.592 8.11646 141.347 8.11646H135.262L132.272 24.6563H134.117L135.368 17.6587V17.6375ZM136.788 9.72803H141.496C143.341 9.72803 144.401 10.7671 144.401 12.315C144.401 13.3753 144.062 14.2871 143.362 14.9869C142.662 15.6866 141.729 16.0471 140.542 16.0471H135.665L136.81 9.70683L136.788 9.72803Z" fill="#32BAAE"/>
<path d="M151.356 18.7614L153.71 16.7257L157.251 22.7479C158.121 24.2111 159.16 24.9532 160.347 24.9532C160.835 24.9532 161.28 24.8048 161.683 24.5079L161.789 24.3383L161.662 23.0448L161.535 22.96C161.217 23.1508 160.898 23.2356 160.559 23.2356C160.135 23.2356 159.817 23.1508 159.584 22.96C159.35 22.7691 159.054 22.3662 158.693 21.7725L155.067 15.5382L163.697 8.22253L163.655 8.0741H161.386L151.738 16.3016L153.201 8.0741H151.377L148.388 24.6139H150.232L151.293 18.7402L151.356 18.7614Z" fill="#32BAAE"/>
</g>
<path d="M12.5326 56.0799L19.8185 47.6116H18.0918L11.766 54.9649L6.71265 47.6116H0.885979L8.52681 58.7307L0.885979 67.6116H2.61265L9.29264 59.8466L14.6293 67.6116H20.4568L12.5326 56.0799ZM10.1685 58.8291L9.39348 57.7216L3.23598 48.9116H5.88765L10.8576 56.0216L11.6326 57.1291L18.0935 66.3707H15.4418L10.1685 58.8291Z" fill="#32BAAE"/>
<path d="M47.4851 47.6116C48.6101 47.6146 49.1811 47.6206 49.6741 47.6346L49.8681 47.6416C50.0921 47.6496 50.3131 47.6596 50.5801 47.6716C51.644 47.7216 52.37 47.8896 53.007 48.1366C53.667 48.3906 54.223 48.7345 54.779 49.2895C55.2874 49.7894 55.6809 50.3941 55.9319 51.0615C56.1789 51.6985 56.3469 52.4245 56.3969 53.4894C56.4089 53.7554 56.4189 53.9764 56.4269 54.2014L56.4329 54.3954C56.4479 54.8874 56.4539 55.4584 56.4559 56.5834L56.4569 57.3293V58.6393C56.4594 59.3687 56.4517 60.0981 56.4339 60.8273L56.4279 61.0213C56.4199 61.2463 56.4099 61.4672 56.3979 61.7332C56.3479 62.7982 56.1779 63.5232 55.9319 64.1612C55.6816 64.8289 55.2881 65.4338 54.779 65.9331C54.2789 66.4415 53.6743 66.8349 53.007 67.0861C52.37 67.3331 51.644 67.5011 50.5801 67.5511C50.3428 67.5623 50.1054 67.5723 49.8681 67.5811L49.6741 67.5871C49.1811 67.6011 48.6101 67.6081 47.4851 67.6101L46.7391 67.6111H45.4302C44.7005 67.6136 43.9707 67.606 43.2412 67.5881L43.0472 67.5821C42.8098 67.5731 42.5725 67.5628 42.3352 67.5511C41.2713 67.5011 40.5453 67.3331 39.9073 67.0861C39.24 66.8355 38.6356 66.442 38.1363 65.9331C37.6274 65.4334 37.2336 64.8287 36.9824 64.1612C36.7354 63.5242 36.5674 62.7982 36.5174 61.7332C36.5062 61.496 36.4962 61.2586 36.4874 61.0213L36.4824 60.8273C36.464 60.0981 36.4556 59.3687 36.4574 58.6393V56.5834C36.4546 55.854 36.4619 55.1246 36.4794 54.3954L36.4864 54.2014C36.4944 53.9764 36.5044 53.7554 36.5164 53.4894C36.5664 52.4245 36.7344 51.6995 36.9814 51.0615C37.2325 50.3934 37.6271 49.7885 38.1373 49.2895C38.6364 48.781 39.2405 48.3875 39.9073 48.1366C40.5453 47.8896 41.2703 47.7216 42.3352 47.6716C42.6012 47.6596 42.8232 47.6496 43.0472 47.6416L43.2412 47.6356C43.9704 47.6178 44.6998 47.6101 45.4292 47.6126L47.4851 47.6116ZM46.4572 52.6115C45.1311 52.6115 43.8594 53.1382 42.9217 54.0759C41.984 55.0135 41.4573 56.2853 41.4573 57.6113C41.4573 58.9374 41.984 60.2091 42.9217 61.1468C43.8594 62.0844 45.1311 62.6112 46.4572 62.6112C47.7832 62.6112 49.0549 62.0844 49.9926 61.1468C50.9303 60.2091 51.457 58.9374 51.457 57.6113C51.457 56.2853 50.9303 55.0135 49.9926 54.0759C49.0549 53.1382 47.7832 52.6115 46.4572 52.6115ZM46.4572 54.6114C46.8511 54.6113 47.2412 54.6889 47.6052 54.8396C47.9692 54.9903 48.3 55.2112 48.5786 55.4897C48.8572 55.7682 49.0782 56.0989 49.229 56.4629C49.3799 56.8268 49.4575 57.2169 49.4576 57.6108C49.4576 58.0048 49.3801 58.3949 49.2294 58.7589C49.0787 59.1229 48.8578 59.4536 48.5793 59.7323C48.3008 60.0109 47.9701 60.2319 47.6061 60.3827C47.2422 60.5335 46.8521 60.6112 46.4582 60.6113C45.6625 60.6113 44.8995 60.2952 44.3369 59.7326C43.7743 59.17 43.4582 58.407 43.4582 57.6113C43.4582 56.8157 43.7743 56.0527 44.3369 55.4901C44.8995 54.9275 45.6625 54.6114 46.4582 54.6114M51.708 51.1115C51.3765 51.1115 51.0586 51.2432 50.8242 51.4776C50.5898 51.712 50.4581 52.0299 50.4581 52.3615C50.4581 52.693 50.5898 53.0109 50.8242 53.2453C51.0586 53.4797 51.3765 53.6114 51.708 53.6114C52.0395 53.6114 52.3575 53.4797 52.5919 53.2453C52.8263 53.0109 52.958 52.693 52.958 52.3615C52.958 52.0299 52.8263 51.712 52.5919 51.4776C52.3575 51.2432 52.0395 51.1115 51.708 51.1115Z" fill="#32BAAE"/>
<path d="M91.0348 47.6116H73.9636C73.1268 47.6116 72.4574 48.281 72.4574 49.0342V66.189C72.4574 66.9421 73.1268 67.6116 73.9636 67.6116H91.0348C91.8716 67.6116 92.541 66.9421 92.541 66.189V49.0342C92.541 48.281 91.8716 47.6116 91.0348 47.6116ZM78.3988 64.6827H75.4699V55.143H78.3988V64.6827ZM76.9762 53.804C76.0557 53.804 75.2189 53.0509 75.2189 52.0467C75.2189 51.0425 75.972 50.2894 76.9762 50.2894C77.8967 50.2894 78.7335 51.0425 78.7335 52.0467C78.7335 53.0509 77.8967 53.804 76.9762 53.804ZM89.6122 64.599H86.6833V59.9128C86.6833 58.825 86.6833 57.3187 85.0934 57.3187C83.5034 57.3187 83.336 58.5739 83.336 59.7455V64.5153H80.4072V55.143H83.1687V56.3982H83.2523C83.6708 55.645 84.6749 54.8082 86.0975 54.8082C89.1101 54.8082 89.6959 56.8166 89.6959 59.4107V64.599H89.6122Z" fill="#32BAAE"/>
<path d="M136.511 50.734C136.349 50.13 136.03 49.5792 135.588 49.1369C135.146 48.6946 134.595 48.3762 133.991 48.2136C131.766 47.6116 122.828 47.6116 122.828 47.6116C122.828 47.6116 113.889 47.6116 111.664 48.2136C111.06 48.3762 110.509 48.6946 110.067 49.1369C109.625 49.5792 109.306 50.13 109.144 50.734C108.729 53.0027 108.527 55.3053 108.542 57.6116C108.527 59.9179 108.729 62.2205 109.144 64.4891C109.306 65.0932 109.625 65.6439 110.067 66.0862C110.509 66.5286 111.06 66.8469 111.664 67.0095C113.889 67.6116 122.828 67.6116 122.828 67.6116C122.828 67.6116 131.766 67.6116 133.991 67.0095C134.595 66.8469 135.146 66.5286 135.588 66.0862C136.03 65.6439 136.349 65.0932 136.511 64.4891C136.927 62.2205 137.128 59.9179 137.113 57.6116C137.128 55.3053 136.927 53.0027 136.511 50.734ZM119.97 61.8973V53.3259L127.389 57.6116L119.97 61.8973Z" fill="#32BAAE"/>
<path d="M172.006 47.6116H154.222C153.929 47.6138 153.648 47.7312 153.441 47.9386C153.234 48.146 153.116 48.4266 153.114 48.7199V66.5032C153.116 66.7965 153.234 67.0772 153.441 67.2845C153.648 67.4919 153.929 67.6094 154.222 67.6116H163.797V59.8782H161.197V56.8532H163.797V54.6282C163.797 52.0449 165.372 50.6366 167.689 50.6366C168.464 50.6366 169.239 50.6366 170.014 50.7532V53.4449H168.422C167.164 53.4449 166.922 54.0449 166.922 54.9199V56.8449H169.922L169.531 59.8699H166.922V67.6116H172.006C172.299 67.6094 172.58 67.4919 172.787 67.2845C172.994 67.0772 173.112 66.7965 173.114 66.5032V48.7199C173.112 48.4266 172.994 48.146 172.787 47.9386C172.58 47.7312 172.299 47.6138 172.006 47.6116Z" fill="#32BAAE"/>
<defs>
<clipPath id="clip0_188_3170">
<rect width="170" height="30.8108" fill="white" transform="translate(0.885979 0.800781)"/>
</clipPath>
</defs>
</svg>
