<svg width="460" height="461" viewBox="0 0 460 461" fill="none" xmlns="http://www.w3.org/2000/svg">
<g clip-path="url(#clip0_160_1227)">
<path d="M505 -24.1993H-25V505.801H505V-24.1993Z" fill="white"/>
<path d="M241.046 30.205C134.52 26.9707 42.2457 106.459 28.3043 210.758C13.0614 324.795 96.9543 427.399 200.181 443.834C328.579 464.275 453.116 346.022 441.933 217.735C433.509 121.082 349.331 33.4936 241.046 30.205Z" fill="#C4E8E5"/>
<path d="M283.199 371.884C289.079 356.191 295.293 332.351 290.176 305.506C283.466 270.301 263.164 260.859 238.694 207.728C223.223 174.134 212.763 150.532 223.369 129.911C231.68 113.751 251.931 101.354 269.237 103.985C283.626 106.174 297.661 119.006 305.15 129.416C311.253 137.901 313.331 145.222 321.064 147.461C328.967 149.748 333.454 144.028 340.367 145.201C354.384 147.576 360.63 175.289 361.64 179.768C372.869 229.589 346.676 279.864 334.986 301.655C325.32 319.674 309.241 345.264 283.199 371.884Z" fill="url(#paint0_linear_160_1227)"/>
<mask id="mask0_160_1227" style="mask-type:luminance" maskUnits="userSpaceOnUse" x="219" y="103" width="146" height="269">
<path d="M283.199 371.884C289.079 356.191 295.293 332.351 290.176 305.506C283.466 270.301 263.164 260.859 238.694 207.728C223.223 174.134 212.763 150.532 223.369 129.911C231.68 113.751 251.931 101.354 269.237 103.985C283.626 106.174 297.661 119.006 305.15 129.416C311.253 137.901 313.331 145.222 321.064 147.461C328.967 149.748 333.454 144.028 340.367 145.201C354.384 147.576 360.63 175.289 361.64 179.768C372.869 229.589 346.676 279.864 334.986 301.655C325.32 319.674 309.241 345.264 283.199 371.884Z" fill="white"/>
</mask>
<g mask="url(#mask0_160_1227)">
<g style="mix-blend-mode:soft-light" opacity="0.5">
<path d="M274.73 386.285L274 385.606C289.46 368.979 301.576 352.274 310.011 335.954C322.45 311.888 326.461 289.346 321.933 268.954C318.386 252.981 309.86 238.831 298.061 219.245C288.641 203.611 280.556 193.379 273.421 184.352C264.099 172.556 256.736 163.239 250.823 147.368C244.823 131.261 242.351 113.524 243.48 94.6478L244.474 94.7078C243.354 113.444 245.804 131.044 251.757 147.021C257.616 162.746 264.936 172.009 274.204 183.735C281.356 192.785 289.463 203.042 298.916 218.731C310.319 237.656 319.324 252.605 322.907 268.736C327.487 289.362 323.446 312.131 310.897 336.409C302.42 352.809 290.251 369.589 274.731 386.284L274.73 386.285Z" fill="white"/>
<path d="M290.171 208.051C286.706 208.051 275.211 207.644 261.524 202.784C246.429 197.424 225.483 185.402 211.431 158.559L212.314 158.096C226.217 184.652 246.93 196.544 261.859 201.844C276.134 206.912 287.964 207.085 290.63 207.051C284.964 173.135 291.669 146.805 298.314 130.656C305.563 113.048 314.324 103.388 314.413 103.292L315.147 103.966C315.06 104.061 306.397 113.619 299.219 131.079C292.594 147.189 285.916 173.515 291.709 207.451L291.803 208.006L291.24 208.034C291.219 208.034 290.849 208.051 290.171 208.051Z" fill="white"/>
<path d="M316.07 250.962L315.754 250.784C315.57 250.681 297.121 240.346 276.599 233.608C256.179 226.902 221.66 238.116 221.313 238.231L221.001 237.284C221.351 237.168 256.183 225.854 276.909 232.661C296.043 238.944 313.377 248.335 315.923 249.738C330.846 235.684 337.039 202.659 339.607 177.352C342.411 149.712 341.61 125.072 341.601 124.826L342.597 124.792C342.606 125.038 343.41 149.746 340.599 177.454C336.816 214.728 328.653 239.376 316.336 250.716L316.069 250.962H316.07Z" fill="white"/>
<path d="M314.219 329.782L314.281 328.791C314.957 318.188 312.441 308.696 306.803 300.579C302.283 294.074 295.756 288.424 287.401 283.785C273.141 275.869 258.337 273.634 258.189 273.612L258.333 272.626C258.483 272.648 273.469 274.911 287.886 282.914C301.061 290.228 316.413 303.938 315.331 327.849C318.721 325.529 332.116 316.015 347.236 300.626C363.317 284.259 384.697 257.706 395.227 224.158L415.676 159.011L416.627 159.309L396.179 224.456C385.586 258.204 364.093 284.895 347.929 301.344C330.419 319.162 315.204 329.141 315.053 329.239L314.22 329.781L314.219 329.782Z" fill="white"/>
</g>
</g>
<path d="M285.69 367.482C312.15 367.399 345.846 363.518 378.007 348.585C386.214 344.774 436.917 321.232 430.673 298.095C428.473 289.945 421.064 288.728 417.933 277.882C414.221 265.031 422.249 258.515 427.697 242.399C430.949 232.784 440.463 204.641 423.507 189.279C413.374 180.099 394.249 175.899 379.757 179.435C358.501 184.619 351.383 205.431 339.946 240.851C329.807 272.249 332.569 279.905 324.873 302.388C319.161 319.074 308.326 342.076 285.69 367.482Z" fill="url(#paint1_linear_160_1227)"/>
<mask id="mask1_160_1227" style="mask-type:luminance" maskUnits="userSpaceOnUse" x="285" y="178" width="149" height="190">
<path d="M285.69 367.482C312.15 367.399 345.846 363.518 378.007 348.585C386.214 344.774 436.917 321.232 430.673 298.095C428.473 289.945 421.064 288.728 417.933 277.882C414.221 265.031 422.249 258.515 427.697 242.399C430.949 232.784 440.463 204.641 423.507 189.279C413.374 180.099 394.249 175.899 379.757 179.435C358.501 184.619 351.383 205.431 339.946 240.851C329.807 272.249 332.569 279.905 324.873 302.388C319.161 319.074 308.326 342.076 285.69 367.482Z" fill="white"/>
</mask>
<g mask="url(#mask1_160_1227)">
<g style="mix-blend-mode:soft-light" opacity="0.5">
<path d="M217.717 382.468C202.929 382.468 187.794 380.502 172.42 376.572L172.667 375.606C201.719 383.033 229.92 383.408 256.487 376.719C291.88 367.808 322.441 346.251 347.324 312.648C373.239 277.652 386.501 238.359 393.066 211.558C397.611 192.999 396.496 172.512 389.75 150.665L390.701 150.371C397.501 172.392 398.623 193.058 394.034 211.794C387.449 238.684 374.139 278.109 348.126 313.239C323.103 347.034 292.353 368.715 256.73 377.684C244.066 380.872 231.031 382.466 217.717 382.466V382.468Z" fill="white"/>
<path d="M375.611 264.929L375.326 264.584C375.251 264.492 367.737 255.319 361.601 241.259C355.933 228.271 350.303 208.325 355.683 187.069L356.65 187.314C351.339 208.295 356.909 228.014 362.514 240.861C367.927 253.262 374.403 261.806 375.814 263.599C431.621 226.525 430.647 184.762 429.014 172.824C428.964 172.459 428.947 172.328 428.947 172.234H429.944H429.446L429.944 172.228C429.947 172.295 429.97 172.449 430.003 172.688C431.66 184.798 432.663 227.224 375.986 264.682L375.611 264.929Z" fill="white"/>
<path d="M368.286 314.279C362.064 314.279 355.341 313.844 348.089 312.851L347.824 312.815L347.707 312.575C347.551 312.254 332.117 279.954 334.996 235.796L337.899 191.261L338.893 191.325L335.99 235.861C333.26 277.744 347.091 308.874 348.491 311.899C367.473 314.465 394.811 314.661 417.81 301.212C431.623 293.135 437.384 283.824 437.441 283.729L438.294 284.246C438.236 284.341 432.377 293.832 418.371 302.039C408.17 308.016 391.851 314.279 368.287 314.279H368.286Z" fill="white"/>
</g>
</g>
<path d="M301.253 379.386C301.186 376.698 301.029 360.848 312.697 351.138C322.466 343.008 335.214 343.599 338.167 343.735C350.059 344.286 353.004 349.795 360.32 347.286C369.007 344.308 369.613 334.909 376.55 334.686C381.336 334.532 386.114 338.842 387.579 343.296C390.149 351.114 383.119 361.238 374.936 365.235C363.661 370.744 356.269 361.658 342.94 367.231C335.194 370.469 335.346 374.518 327.237 378.131C317.821 382.326 308.089 381.112 301.251 379.385L301.253 379.386Z" fill="url(#paint2_linear_160_1227)"/>
<mask id="mask2_160_1227" style="mask-type:luminance" maskUnits="userSpaceOnUse" x="301" y="334" width="88" height="47">
<path d="M301.253 379.386C301.186 376.698 301.029 360.848 312.697 351.138C322.466 343.008 335.214 343.599 338.167 343.735C350.059 344.286 353.004 349.795 360.32 347.286C369.007 344.308 369.613 334.909 376.55 334.686C381.336 334.532 386.114 338.842 387.579 343.296C390.149 351.114 383.119 361.238 374.936 365.235C363.661 370.744 356.269 361.658 342.94 367.231C335.194 370.469 335.346 374.518 327.237 378.131C317.821 382.326 308.089 381.112 301.251 379.385L301.253 379.386Z" fill="white"/>
</mask>
<g mask="url(#mask2_160_1227)">
<g style="mix-blend-mode:soft-light" opacity="0.5">
<path d="M297.523 385.331L297.127 385.028C301.123 379.811 305.49 374.771 310.11 370.048C319.357 360.595 323.999 355.851 329.65 353.866C337.001 351.286 342.734 353.369 348.279 355.384C353.196 357.171 357.841 358.859 363.404 357.351C372.234 354.956 379.333 345.284 384.504 328.601L384.98 328.748C379.756 345.605 372.54 355.389 363.536 357.832C357.82 359.382 353.103 357.668 348.109 355.854C342.646 353.869 337 351.816 329.816 354.338C324.274 356.284 319.66 360.999 310.467 370.396C305.861 375.105 301.506 380.129 297.523 385.332V385.331Z" fill="white"/>
<path d="M374.346 359.041C373.39 359.041 372.529 358.991 371.763 358.912C367.617 358.486 365.407 357.195 365.314 357.141L365.243 357.098L365.211 357.019C361.537 347.885 367.503 334.711 367.563 334.578L368.016 334.786C367.956 334.916 362.116 347.819 365.641 356.751C366.51 357.215 375.201 361.476 389.623 354.839L389.831 355.292C383.411 358.248 378.146 359.039 374.346 359.041Z" fill="white"/>
<path d="M358.319 373.129C354.487 362.239 329.904 354.416 329.657 354.339L329.444 354.272L329.487 354.054C330.267 350.084 334.674 347.334 342.587 345.879C348.423 344.806 354.109 344.878 354.166 344.878L354.159 345.376C353.941 345.372 332.1 345.156 330.023 353.934C331.183 354.312 336.826 356.208 342.784 359.176C351.757 363.645 357.141 368.284 358.789 372.965L358.319 373.131V373.129Z" fill="white"/>
<path d="M342.283 377.299C335.621 361.739 311.594 369.371 311.351 369.451L311.07 369.542L311.027 369.249C308.863 354.493 322.13 341.118 322.264 340.984L322.616 341.336C322.484 341.468 309.564 354.496 311.48 368.888C314.244 368.066 336.299 362.058 342.74 377.101L342.281 377.296L342.283 377.299Z" fill="white"/>
</g>
</g>
<path d="M432.197 400.148L36.9443 396.674V406.952C36.9443 409.742 38.6686 412.115 41.0028 412.538L152.769 432.779C154.094 433.019 155.44 433.084 156.779 432.969L427.901 409.891C430.321 409.685 432.197 407.305 432.197 404.438V400.146V400.148Z" fill="url(#paint3_linear_160_1227)"/>
<path d="M288.761 383.485L41.0314 402.289C36.5986 402.626 32.9943 399.051 32.9943 394.302V204.079C32.9943 199.331 36.5986 195.482 41.0314 195.482H288.761C292.413 195.482 295.366 198.962 295.366 203.254V375.212C295.366 379.504 292.413 383.208 288.761 383.485Z" fill="url(#paint4_linear_160_1227)"/>
<path d="M292.713 383.485L44.9829 402.289C40.55 402.626 36.9457 399.051 36.9457 394.302V204.079C36.9457 199.331 40.55 195.482 44.9829 195.482H292.713C296.366 195.482 299.317 198.962 299.317 203.254V375.212C299.317 379.504 296.364 383.208 292.713 383.485Z" fill="url(#paint5_linear_160_1227)"/>
<path d="M284.994 371.361L54.26 387.695C50.6529 387.951 47.7214 385.015 47.7214 381.139V214.598C47.7214 210.722 50.6529 207.567 54.26 207.551L284.994 206.525C288.007 206.512 290.444 209.362 290.444 212.894V364.582C290.444 368.112 288.007 371.146 284.994 371.361Z" fill="url(#paint6_linear_160_1227)"/>
<path d="M177.596 200.685C177.596 202.452 176.32 203.889 174.746 203.895C173.169 203.901 171.89 202.468 171.89 200.696C171.89 198.925 173.17 197.488 174.746 197.486C176.32 197.486 177.596 198.916 177.596 200.685Z" fill="white"/>
<g style="mix-blend-mode:soft-light" opacity="0.48">
<path d="M233.026 331.314C213.929 320.276 198.911 334.262 184.42 320.464C175.634 312.098 179.947 305.859 169.137 293.358C157.163 279.512 149.367 284.166 137.334 271.704C122.119 255.946 129.729 243.686 116.621 232.374C100.721 218.649 83.5743 231.352 68.4386 218.189C61.91 212.512 58.3286 204.259 56.4586 195.482H41.6486C39.0529 195.482 36.9457 197.741 36.9457 200.528V397.711C36.9457 400.498 39.0529 402.596 41.6486 402.398L294.126 383.148C295.364 383.054 296.463 382.276 297.169 381.149C278.687 380.426 267.331 373.771 260.074 366.891C245.876 353.432 248.339 340.159 233.027 331.311L233.026 331.314Z" fill="white"/>
</g>
<path d="M302.586 382.632L36.9443 402.425L152.769 423.401C154.094 423.641 155.44 423.705 156.779 423.591L432.197 400.146L306.811 382.765C305.409 382.571 303.994 382.525 302.586 382.631V382.632Z" fill="url(#paint7_linear_160_1227)"/>
<path style="mix-blend-mode:multiply" opacity="0.3" d="M75.7057 402.924L296.86 386.199L365.306 395.611L146.057 413.488L75.7057 402.924Z" fill="url(#paint8_linear_160_1227)"/>
<g opacity="0.75">
<path d="M94.7971 220.629L69.3886 220.718V212.495H94.7971V220.629Z" fill="white"/>
<path d="M227.921 220.165L110.936 220.572V212.495H227.921V220.165Z" fill="white"/>
<path d="M135.459 234.138L110.936 234.371V226.292L135.459 226.146V234.138Z" fill="white"/>
<path d="M264.106 232.922L151.041 233.991V226.054L264.106 225.379V232.922Z" fill="white"/>
<path d="M135.459 247.789L110.936 248.168V240.091L135.459 239.798V247.789Z" fill="white"/>
<path d="M264.106 245.805L151.041 247.549V239.612L264.106 238.264V245.805Z" fill="white"/>
<path d="M94.7971 262.309L69.3886 262.854V254.631L94.7971 254.176V262.309Z" fill="white"/>
<path d="M227.921 259.464L110.936 261.965V253.888L227.921 251.795V259.464Z" fill="white"/>
<path d="M135.459 275.091L110.936 275.762V267.685L135.459 267.099V275.091Z" fill="white"/>
<path d="M264.106 271.574L151.041 274.665V266.728L264.106 264.031V271.574Z" fill="white"/>
<path d="M135.459 288.742L110.936 289.559V281.482L135.459 280.751V288.742Z" fill="white"/>
<path d="M264.106 284.457L151.041 288.224V280.287L264.106 276.915V284.457Z" fill="white"/>
<path d="M135.459 302.394L110.936 303.356V295.279L135.459 294.402V302.394Z" fill="white"/>
<path d="M264.106 297.341L151.041 301.781V293.844L264.106 289.798V297.341Z" fill="white"/>
<path d="M175.094 314.251L151.416 315.322V307.387L175.094 306.398V314.251Z" fill="white"/>
<path d="M281.371 309.444L190.143 313.571V305.769L281.371 301.961V309.444Z" fill="white"/>
<path d="M94.7971 331.778L69.3886 333.078V324.856L94.7971 323.644V331.778Z" fill="white"/>
<path d="M227.921 324.961L110.936 330.951V322.874L227.921 317.292V324.961Z" fill="white"/>
<path d="M135.459 343.346L110.936 344.748V336.671L135.459 335.355V343.346Z" fill="white"/>
<path d="M264.106 335.992L151.041 342.455V334.518L264.106 328.449V335.992Z" fill="white"/>
<path d="M135.459 356.998L110.936 358.545V350.468L135.459 349.006V356.998Z" fill="white"/>
<path d="M264.106 348.876L151.041 356.014V348.076L264.106 341.334V348.876Z" fill="white"/>
<path d="M94.7971 373.458L69.3886 375.214V366.991L94.7971 365.325V373.458Z" fill="white"/>
<path d="M227.921 364.259L110.936 372.344V364.265L227.921 356.591V364.259Z" fill="white"/>
</g>
<path d="M151.18 177.641L99.2843 178.849L72.8386 224.809L99.2843 268.962L151.18 266.625L176.641 221.264L151.18 177.641Z" fill="url(#paint9_linear_160_1227)"/>
<path style="mix-blend-mode:multiply" opacity="0.3" d="M151.18 177.641L99.2843 178.849L72.8386 224.809L99.2843 268.962L151.18 266.625L176.641 221.264L151.18 177.641Z" fill="url(#paint10_linear_160_1227)"/>
<g style="mix-blend-mode:soft-light" opacity="0.47">
<path d="M102.067 264.066L78.4714 224.616L102.067 183.555L148.463 182.422L171.271 221.446L148.463 262.029L102.067 264.066Z" fill="white"/>
</g>
<path d="M311.504 173.909L263.624 175.024L239.244 219.125L263.624 261.561L311.504 259.404L335.016 215.854L311.504 173.909Z" fill="url(#paint11_linear_160_1227)"/>
<g style="mix-blend-mode:soft-light" opacity="0.47">
<path d="M266.19 256.862L244.436 218.948L266.19 179.546L308.997 178.501L330.056 216.024L308.997 254.984L266.19 256.862Z" fill="white"/>
</g>
<path d="M151.18 79.2893L99.2843 79.2479L72.8386 124.572L99.2843 169.362L151.18 168.274L176.641 123.524L151.18 79.2893Z" fill="url(#paint12_linear_160_1227)"/>
<path style="mix-blend-mode:multiply" opacity="0.3" d="M151.18 79.2893L99.2843 79.2479L72.8386 124.572L99.2843 169.362L151.18 168.274L176.641 123.524L151.18 79.2893Z" fill="url(#paint13_linear_160_1227)"/>
<g style="mix-blend-mode:soft-light" opacity="0.47">
<path d="M102.067 164.532L78.4714 124.515L102.067 84.0221L148.463 84.005L171.271 123.578L148.463 163.612L102.067 164.532Z" fill="white"/>
</g>
<path d="M411.551 79.4936L263.624 79.3779L239.244 122.892L263.624 165.914L411.551 162.809L433.883 120.926L411.551 79.4936Z" fill="url(#paint14_linear_160_1227)"/>
<path d="M233.78 224.221L183.974 225.982L158.603 271.292L183.974 314.252L233.78 311.406L258.227 266.682L233.78 224.221Z" fill="url(#paint15_linear_160_1227)"/>
<path style="mix-blend-mode:multiply" opacity="0.3" d="M233.78 224.221L183.974 225.982L158.603 271.292L183.974 314.252L233.78 311.406L258.227 266.682L233.78 224.221Z" fill="url(#paint16_linear_160_1227)"/>
<g style="mix-blend-mode:soft-light" opacity="0.47">
<path d="M186.644 309.426L164.007 271.042L186.644 230.562L231.171 228.935L253.07 266.921L231.171 306.932L186.644 309.426Z" fill="white"/>
</g>
<path d="M233.571 127.539L183.76 128.099L158.387 172.798L183.76 216.374L233.571 214.729L258.021 170.592L233.571 127.539Z" fill="url(#paint17_linear_160_1227)"/>
<g style="mix-blend-mode:soft-light" opacity="0.47">
<path d="M186.43 211.611L163.79 172.678L186.43 132.744L230.963 132.191L252.864 170.706L230.963 210.192L186.43 211.611Z" fill="white"/>
</g>
<path d="M233.363 30.8464L183.546 30.205L158.17 74.2936L183.546 118.484L233.363 118.042L257.816 74.4936L233.363 30.8464Z" fill="url(#paint18_linear_160_1227)"/>
<g style="mix-blend-mode:soft-light" opacity="0.47">
<path d="M186.217 113.786L163.574 74.3036L186.217 34.9136L230.754 35.4364L252.657 74.4836L230.754 113.442L186.217 113.786Z" fill="white"/>
</g>
<path opacity="0.73" d="M286.521 100.452L269.583 100.529V94.2078L286.521 94.1578V100.452Z" fill="white"/>
<path opacity="0.73" d="M379.051 100.032L297.397 100.404V94.1264L379.051 93.885V100.032Z" fill="white"/>
<path opacity="0.73" d="M314.099 111.005L297.397 111.126V104.849L314.099 104.754V111.005Z" fill="white"/>
<path opacity="0.73" d="M405.357 110.342L324.823 110.926V104.694L405.357 104.236V110.342Z" fill="white"/>
<path opacity="0.73" d="M314.099 121.682L297.397 121.849V115.572L314.099 115.431V121.682Z" fill="white"/>
<path opacity="0.73" d="M405.357 120.771L324.823 121.575V115.341L405.357 114.666V120.771Z" fill="white"/>
<path opacity="0.73" d="M286.521 132.709L269.583 132.925V126.604L286.521 126.415V132.709Z" fill="white"/>
<path opacity="0.73" d="M379.051 131.535L297.397 132.572V126.294L379.051 125.386V131.535Z" fill="white"/>
<path opacity="0.73" d="M314.099 143.036L297.397 143.295V137.016L314.099 136.786V143.036Z" fill="white"/>
<path opacity="0.73" d="M405.357 141.629L324.823 142.871V136.638L405.357 135.524V141.629Z" fill="white"/>
<path opacity="0.73" d="M314.099 153.714L297.397 154.016V147.739L314.099 147.464V153.714Z" fill="white"/>
<path opacity="0.73" d="M405.357 152.058L324.823 153.519V147.286L405.357 145.952V152.058Z" fill="white"/>
<path style="mix-blend-mode:multiply" opacity="0.3" d="M249.683 200.241L239.243 219.125L263.624 261.561L309.184 259.508C308.55 257.592 307.853 255.679 307.071 253.771C294.9 224.028 271.754 214.006 249.683 200.241Z" fill="url(#paint19_linear_160_1227)"/>
<g style="mix-blend-mode:multiply" opacity="0.3">
<path d="M208.739 156.955C203.834 146.388 201.679 136.848 200.864 127.906L183.76 128.099L158.387 172.798L183.76 216.374L233.571 214.729L243.727 196.396C230.231 187.326 217.586 176.018 208.739 156.955Z" fill="url(#paint20_linear_160_1227)"/>
</g>
<g style="mix-blend-mode:multiply" opacity="0.3">
<path d="M191.523 51.5421C188.216 45.8993 184.356 40.815 180.081 36.2236L158.17 74.2936L183.546 118.485L200.443 118.335C200.386 95.7621 206.071 76.365 191.523 51.5421Z" fill="url(#paint21_linear_160_1227)"/>
</g>
<path d="M226.314 170.105C226.916 169.172 228.014 167.188 228.084 164.524C228.221 159.346 224.38 155.308 223.864 155.539C223.586 155.664 223.939 157.181 224.137 157.854C224.549 159.254 224.991 159.389 224.954 160.032C224.879 161.355 222.967 161.406 221.96 163.164C221.234 164.428 221.176 166.229 221.96 167.655C223.26 170.021 226.193 170.104 226.316 170.105H226.314Z" fill="url(#paint22_linear_160_1227)"/>
<path d="M308.346 282.564L306.87 277.485L313.031 272.919L316.873 271.482L314.599 278.589L308.346 282.564Z" fill="url(#paint23_linear_160_1227)"/>
<path d="M300.717 384.861C300.717 384.861 304.087 393.339 303.201 397.101C306.82 397.029 309.161 396.569 309.161 396.569C309.161 396.569 307.707 392.702 307.423 390.786C307.04 388.198 307.069 384.011 307.069 384.011L300.717 384.862V384.861Z" fill="url(#paint24_linear_160_1227)"/>
<path d="M263.563 404.694C263.781 404.956 264.167 405.506 264.2 406.251C264.217 406.655 264.126 406.988 264.009 407.295C263.434 408.808 262.531 409.006 261.557 410.612C260.961 411.592 261.074 411.888 260.529 412.331C259.81 412.914 258.94 412.948 258.187 412.956C256.914 412.971 255.08 412.925 252.773 412.651C253.983 411.092 255.269 409.508 256.637 407.909C257.237 407.208 257.836 406.524 258.433 405.855L261.99 404.654C262.514 404.668 263.039 404.682 263.563 404.696V404.694Z" fill="#26264F"/>
<path d="M260.606 387.426C260.606 387.426 258.573 398.034 261.16 401.004C263.364 403.974 260.096 401.855 260.096 401.855L256.193 405.261L253.851 409.305C253.851 409.305 256.007 398.924 255.431 394.804C254.857 390.684 254.569 387.905 254.569 387.905L260.604 387.426H260.606Z" fill="url(#paint25_linear_160_1227)"/>
<path d="M252.94 271.396C252.94 271.396 247.479 276.282 247.479 296.404C247.479 316.525 250.066 360.215 250.066 360.215L254.206 391.495C254.206 391.495 258.499 391.648 261.373 390.785C263.96 378.999 268.176 359.065 266.163 342.394C265.3 324.285 273.349 301.578 273.349 301.578C273.349 301.578 280.247 324.574 285.134 336.071C290.02 347.568 299.324 383.586 300.186 386.174C305.904 386.692 308.346 385.179 308.346 385.179C308.346 385.179 304.68 346.418 301.23 331.758C297.78 317.098 298.069 281.744 292.319 271.684C279.384 266.509 252.94 271.396 252.94 271.396Z" fill="url(#paint26_linear_160_1227)"/>
<path d="M252.941 271.396C252.941 271.396 247.48 276.282 247.48 296.404C247.48 316.525 250.067 360.215 250.067 360.215L254.207 391.495C254.207 391.495 258.5 391.648 261.374 390.785C263.961 378.999 268.177 359.065 266.164 342.394C265.301 324.285 273.35 301.578 273.35 301.578C273.35 301.578 280.249 324.574 285.136 336.071C290.021 347.568 299.326 383.586 300.187 386.174C305.904 386.692 308.347 385.179 308.347 385.179C308.347 385.179 304.681 346.418 301.231 331.758C297.781 317.098 298.07 281.744 292.321 271.684C279.387 266.509 252.943 271.396 252.943 271.396H252.941Z" fill="url(#paint27_linear_160_1227)"/>
<path style="mix-blend-mode:multiply" opacity="0.25" d="M281.311 308.264C283.014 319.332 286.42 325.294 294.934 332.956C301.746 338.065 296.637 349.135 299.191 357.649C300.043 360.204 302.597 362.758 303.449 365.312C306.617 371.649 303.657 379.401 305.094 386.111C307.33 385.802 308.344 385.181 308.344 385.181C308.344 385.181 304.679 346.419 301.229 331.759C297.779 317.099 298.067 281.745 292.319 271.685C279.384 266.511 252.94 271.398 252.94 271.398C252.94 271.398 247.479 276.284 247.479 296.405C247.479 298.038 247.496 299.828 247.527 301.734C253.197 306.751 264.793 307.866 271.944 302.304C272.376 301.979 272.836 301.781 273.311 301.685C273.333 301.621 273.349 301.578 273.349 301.578C273.349 301.578 273.36 301.618 273.379 301.678C276.633 301.084 280.573 305.311 281.311 308.264Z" fill="url(#paint28_linear_160_1227)"/>
<path d="M302.314 400.319C302.314 400.319 301.474 400.319 301.544 401.405C301.614 402.489 301.166 406.222 305.436 406.398C309.706 406.572 310.364 406.095 310.504 406.095C310.644 406.095 309.384 402.525 309.384 402.525L308.019 400.775L304.343 400.391L302.313 400.321L302.314 400.319Z" fill="#26264F"/>
<path d="M311.783 404.065C311.691 403.164 311.187 401.745 310.68 400.604C309.926 398.908 310.546 398.272 309.824 396.728C309.576 396.194 309.333 395.688 308.807 395.185C308.686 395.069 307.507 393.981 305.791 394.036C305.454 394.048 304.934 394.071 304.371 394.369C303.71 394.722 303.377 395.252 303.094 395.718C302.649 396.449 302.751 396.674 302.066 398.769C302.01 398.938 301.89 399.304 301.797 399.808C301.726 400.194 301.697 400.518 301.684 400.739C302.804 400.739 307.11 400.915 308.02 401.579C308.93 402.245 309.386 403.365 309.386 404.485C309.386 405.605 309.946 406.129 310.506 406.095C311.006 406.064 312 405.136 311.783 404.066V404.065Z" fill="#444B8C"/>
<path d="M260.06 399.514C261.021 399.529 261.727 400.294 262.26 402.139C262.793 403.984 265.347 405.617 262.367 405.227C259.387 404.837 257.223 409.058 256.159 410.619C255.094 412.181 252.237 413.567 252.309 412.042C252.38 410.517 253.64 409.804 253.994 408.242C254.349 406.681 257.867 399.481 260.061 399.515L260.06 399.514Z" fill="#444B8C"/>
<path d="M310.607 273.825C311.314 271.859 315.729 258.944 308.594 247.165C302.754 237.522 292.649 234.376 291.209 233.951C282.437 231.361 278.041 234.688 275.274 231.625C270.579 226.428 275.897 208.725 286.187 205.179C297.786 201.182 311.7 216.552 317.339 226.646C324.736 239.891 322.916 253.054 322.487 255.764C321.374 262.808 318.789 268.182 316.873 271.481C314.784 272.262 312.696 273.042 310.607 273.824V273.825Z" fill="white"/>
<path d="M280.319 202.681C269.966 202.266 261.981 202.431 257.47 206.938C252.706 211.698 257.52 217.074 256.486 229.526C254.901 248.592 242.753 253.249 241.839 272.592C241.53 279.109 242.633 284.436 243.49 287.644C246.156 290.964 250.52 295.651 256.961 299.568C266.333 305.269 271.769 304.276 285.229 307.959C307.244 313.985 309.203 321.161 320.12 319.332C331.153 317.485 340.833 308.199 339.664 303.101C338.964 300.048 334.516 300.912 329.396 296.255C322.796 290.252 325.341 284.524 320.323 278.074C313.116 268.809 303.074 274.472 296.933 266.444C290.72 258.321 293.184 242.315 298.421 233.591C301.841 227.892 303.307 221.215 306.217 215.239C306.459 214.744 306.74 213.929 306.616 212.911C306.143 209.019 299.657 206.909 294.744 205.361C287.251 202.999 281.17 202.714 280.319 202.681Z" fill="white"/>
<path d="M271.597 202.254L273.639 201.625C273.639 201.625 274.173 204.389 280.739 204.735C284.383 204.735 286.739 202.694 286.739 202.694L288.134 203.711C288.134 203.711 285.073 207.535 280.206 207.436C273.923 207.311 271.599 202.254 271.599 202.254H271.597Z" fill="url(#paint29_linear_160_1227)"/>
<path d="M275.756 193.844C276.149 190.808 278.55 188.862 279.073 188.445C281.266 186.702 281.713 186.526 282.466 186.384L283.494 186.228C283.494 186.228 283.55 186.228 283.607 186.232C284.21 186.269 286.014 186.974 286.341 187.204C287.39 187.941 286.617 193.161 283.44 199.654C283.316 200.204 283.19 200.754 283.066 201.302C285.836 201.789 286.521 202.288 286.543 202.688C286.59 203.552 283.557 204.655 280.747 204.726C277.223 204.816 273.481 203.301 273.553 202.168C273.581 201.709 274.247 201.145 276.806 200.589C277.206 200.026 277.606 199.465 278.006 198.902C277.643 198.462 275.467 196.078 275.757 193.842L275.756 193.844Z" fill="url(#paint30_linear_160_1227)"/>
<path d="M280.111 192.701C280.911 192.222 281.52 193.251 281.143 194.149C280.767 195.048 279.501 195.611 278.734 195.075C277.967 194.539 279.036 193.345 280.111 192.701Z" fill="url(#paint31_linear_160_1227)"/>
<path d="M383.72 192.685C373.199 181.266 348.716 184.398 335.137 193.568C328.827 197.829 325.589 202.862 318.133 203.285C312.464 203.606 303.449 201.475 298.7 195.335C298.101 194.562 295.709 191.318 292.116 187.226C290.531 185.424 288.956 183.731 286.514 183.348C285.894 183.251 283.83 182.915 282.466 184.248C281.36 185.328 281.089 187.205 281.416 188.559C281.611 189.368 281.864 189.454 281.829 189.984C281.727 191.472 279.016 192.121 279.167 192.871C279.274 193.406 280.686 193.211 280.929 193.882C281.194 194.619 279.646 195.254 278.98 197.106C277.733 197.942 276.944 200.019 276.671 202.801C276.27 206.888 276.681 210.209 277.456 212.711C281.184 224.754 283.853 233.369 290.307 238.179C298.854 244.548 306.55 238.668 328.29 237.738C358.06 236.465 365.481 246.555 376.181 239.652C389.541 231.032 394.643 204.542 383.719 192.688L383.72 192.685Z" fill="url(#paint32_linear_160_1227)"/>
<path d="M227.573 169.379C227.307 171.871 226.41 182.889 234.01 192.194C241.111 200.886 251.17 202.624 253.039 202.906C262.081 204.274 265.981 200.375 269.141 203.031C274.504 207.536 271.654 225.801 261.946 230.721C251.003 236.266 235.117 222.944 228.151 213.715C219.013 201.606 219.016 188.319 219.07 185.575C219.209 178.445 221.036 172.768 222.483 169.238C223.077 169.059 223.983 168.861 225.091 168.899C226.149 168.936 227.001 169.174 227.571 169.382L227.573 169.379Z" fill="white"/>
<path style="mix-blend-mode:multiply" opacity="0.25" d="M320.451 312.045C317.804 309.331 320.719 303.858 316.807 299.789C313.177 296.012 309.069 299.064 303.226 295.815C295.731 291.646 297.797 284.016 290.639 279.915C285.491 276.965 283.071 280.136 275.07 278.589C267.081 277.045 257.351 271.538 252.546 261.695C250.503 257.514 249.751 253.355 249.651 249.639C246.059 256.058 242.331 262.211 241.841 272.592C241.533 279.109 242.636 284.436 243.493 287.644C246.159 290.964 250.523 295.651 256.964 299.568C266.336 305.269 271.771 304.276 285.231 307.959C307.247 313.985 309.206 321.161 320.123 319.332C327.174 318.151 333.657 313.934 337.124 309.711C326.95 314.239 322.376 314.015 320.454 312.045H320.451Z" fill="url(#paint33_linear_160_1227)"/>
</g>
<defs>
<linearGradient id="paint0_linear_160_1227" x1="219.063" y1="237.758" x2="364.379" y2="237.758" gradientUnits="userSpaceOnUse">
<stop stop-color="#AA80F9"/>
<stop offset="1" stop-color="#6165D7"/>
</linearGradient>
<linearGradient id="paint1_linear_160_1227" x1="416.543" y1="180.384" x2="353.05" y2="350.812" gradientUnits="userSpaceOnUse">
<stop stop-color="#E38DDD"/>
<stop offset="1" stop-color="#9571F6"/>
</linearGradient>
<linearGradient id="paint2_linear_160_1227" x1="301.241" y1="357.832" x2="388.116" y2="357.832" gradientUnits="userSpaceOnUse">
<stop stop-color="#FF9085"/>
<stop offset="1" stop-color="#FB6FBB"/>
</linearGradient>
<linearGradient id="paint3_linear_160_1227" x1="203.89" y1="415.372" x2="176.121" y2="427.034" gradientUnits="userSpaceOnUse">
<stop stop-color="#40447E"/>
<stop offset="1" stop-color="#3C3B6B"/>
</linearGradient>
<linearGradient id="paint4_linear_160_1227" x1="158.71" y1="291.926" x2="129.919" y2="304.018" gradientUnits="userSpaceOnUse">
<stop stop-color="#40447E"/>
<stop offset="1" stop-color="#3C3B6B"/>
</linearGradient>
<linearGradient id="paint5_linear_160_1227" x1="36.9457" y1="298.896" x2="299.317" y2="298.896" gradientUnits="userSpaceOnUse">
<stop stop-color="#40447E"/>
<stop offset="1" stop-color="#3C3B6B"/>
</linearGradient>
<linearGradient id="paint6_linear_160_1227" x1="53.7986" y1="383.481" x2="320.137" y2="166.598" gradientUnits="userSpaceOnUse">
<stop stop-color="#FFC444"/>
<stop offset="1" stop-color="#F36F56"/>
</linearGradient>
<linearGradient id="paint7_linear_160_1227" x1="36.9457" y1="403.112" x2="432.197" y2="403.112" gradientUnits="userSpaceOnUse">
<stop stop-color="#40447E"/>
<stop offset="1" stop-color="#3C3B6B"/>
</linearGradient>
<linearGradient id="paint8_linear_160_1227" x1="75.7057" y1="399.844" x2="365.306" y2="399.844" gradientUnits="userSpaceOnUse">
<stop stop-color="#40447E"/>
<stop offset="1" stop-color="#3C3B6B"/>
</linearGradient>
<linearGradient id="paint9_linear_160_1227" x1="170.537" y1="65.7607" x2="23.7743" y2="569.776" gradientUnits="userSpaceOnUse">
<stop stop-color="#FF9085"/>
<stop offset="1" stop-color="#FB6FBB"/>
</linearGradient>
<linearGradient id="paint10_linear_160_1227" x1="170.537" y1="65.7607" x2="23.7743" y2="569.776" gradientUnits="userSpaceOnUse">
<stop stop-color="#FF9085"/>
<stop offset="1" stop-color="#FB6FBB"/>
</linearGradient>
<linearGradient id="paint11_linear_160_1227" x1="318.063" y1="111.258" x2="177.973" y2="592.354" gradientUnits="userSpaceOnUse">
<stop stop-color="#E38DDD"/>
<stop offset="1" stop-color="#9571F6"/>
</linearGradient>
<linearGradient id="paint12_linear_160_1227" x1="143.281" y1="60.3764" x2="-1.76001" y2="558.479" gradientUnits="userSpaceOnUse">
<stop stop-color="#E38DDD"/>
<stop offset="1" stop-color="#9571F6"/>
</linearGradient>
<linearGradient id="paint13_linear_160_1227" x1="143.281" y1="60.3764" x2="-1.76001" y2="558.479" gradientUnits="userSpaceOnUse">
<stop stop-color="#E38DDD"/>
<stop offset="1" stop-color="#9571F6"/>
</linearGradient>
<linearGradient id="paint14_linear_160_1227" x1="448.679" y1="451.659" x2="329.88" y2="102.255" gradientUnits="userSpaceOnUse">
<stop stop-color="#F36F56"/>
<stop offset="1" stop-color="#FFC444"/>
</linearGradient>
<linearGradient id="paint15_linear_160_1227" x1="321.839" y1="77.1821" x2="36.7686" y2="560.481" gradientUnits="userSpaceOnUse">
<stop stop-color="#FF9085"/>
<stop offset="1" stop-color="#FB6FBB"/>
</linearGradient>
<linearGradient id="paint16_linear_160_1227" x1="321.839" y1="77.1821" x2="36.7686" y2="560.481" gradientUnits="userSpaceOnUse">
<stop stop-color="#FF9085"/>
<stop offset="1" stop-color="#FB6FBB"/>
</linearGradient>
<linearGradient id="paint17_linear_160_1227" x1="209.987" y1="451.754" x2="208.119" y2="158.294" gradientUnits="userSpaceOnUse">
<stop stop-color="#F36F56"/>
<stop offset="1" stop-color="#FFC444"/>
</linearGradient>
<linearGradient id="paint18_linear_160_1227" x1="234.54" y1="29.8978" x2="-44.8258" y2="503.525" gradientUnits="userSpaceOnUse">
<stop stop-color="#FF9085"/>
<stop offset="1" stop-color="#FB6FBB"/>
</linearGradient>
<linearGradient id="paint19_linear_160_1227" x1="311.561" y1="111.061" x2="172.901" y2="587.248" gradientUnits="userSpaceOnUse">
<stop stop-color="#E38DDD"/>
<stop offset="1" stop-color="#9571F6"/>
</linearGradient>
<linearGradient id="paint20_linear_160_1227" x1="202.756" y1="451.375" x2="200.89" y2="158.444" gradientUnits="userSpaceOnUse">
<stop stop-color="#F36F56"/>
<stop offset="1" stop-color="#FFC444"/>
</linearGradient>
<linearGradient id="paint21_linear_160_1227" x1="223.05" y1="21.6921" x2="-59.6814" y2="501.022" gradientUnits="userSpaceOnUse">
<stop stop-color="#FF9085"/>
<stop offset="1" stop-color="#FB6FBB"/>
</linearGradient>
<linearGradient id="paint22_linear_160_1227" x1="226.626" y1="160.322" x2="220.699" y2="169.909" gradientUnits="userSpaceOnUse">
<stop stop-color="#FFC444"/>
<stop offset="1" stop-color="#F36F56"/>
</linearGradient>
<linearGradient id="paint23_linear_160_1227" x1="311.031" y1="273.779" x2="313.424" y2="278.701" gradientUnits="userSpaceOnUse">
<stop stop-color="#FFC444"/>
<stop offset="1" stop-color="#F36F56"/>
</linearGradient>
<linearGradient id="paint24_linear_160_1227" x1="304.939" y1="399.088" x2="304.939" y2="383.651" gradientUnits="userSpaceOnUse">
<stop stop-color="#FFC444"/>
<stop offset="1" stop-color="#F36F56"/>
</linearGradient>
<linearGradient id="paint25_linear_160_1227" x1="257.887" y1="403.488" x2="257.887" y2="384.884" gradientUnits="userSpaceOnUse">
<stop stop-color="#FFC444"/>
<stop offset="1" stop-color="#F36F56"/>
</linearGradient>
<linearGradient id="paint26_linear_160_1227" x1="247.479" y1="330.406" x2="308.346" y2="330.406" gradientUnits="userSpaceOnUse">
<stop stop-color="#311944"/>
<stop offset="1" stop-color="#893976"/>
</linearGradient>
<linearGradient id="paint27_linear_160_1227" x1="245.544" y1="285.034" x2="289.396" y2="358.686" gradientUnits="userSpaceOnUse">
<stop stop-color="#311944"/>
<stop offset="1" stop-color="#893976"/>
</linearGradient>
<linearGradient id="paint28_linear_160_1227" x1="262.807" y1="274.756" x2="306.659" y2="348.409" gradientUnits="userSpaceOnUse">
<stop stop-color="#311944"/>
<stop offset="1" stop-color="#893976"/>
</linearGradient>
<linearGradient id="paint29_linear_160_1227" x1="274.081" y1="193.819" x2="283.07" y2="208.106" gradientUnits="userSpaceOnUse">
<stop stop-color="#E38DDD"/>
<stop offset="1" stop-color="#9571F6"/>
</linearGradient>
<linearGradient id="paint30_linear_160_1227" x1="284.933" y1="191.628" x2="275.054" y2="207.608" gradientUnits="userSpaceOnUse">
<stop stop-color="#FFC444"/>
<stop offset="1" stop-color="#F36F56"/>
</linearGradient>
<linearGradient id="paint31_linear_160_1227" x1="281.401" y1="189.464" x2="275.765" y2="206.747" gradientUnits="userSpaceOnUse">
<stop stop-color="#FFC444"/>
<stop offset="1" stop-color="#F36F56"/>
</linearGradient>
<linearGradient id="paint32_linear_160_1227" x1="278.5" y1="123.375" x2="361.287" y2="254.959" gradientUnits="userSpaceOnUse">
<stop stop-color="#444B8C"/>
<stop offset="1" stop-color="#26264F"/>
</linearGradient>
<linearGradient id="paint33_linear_160_1227" x1="246.804" y1="209.225" x2="293.839" y2="305.942" gradientUnits="userSpaceOnUse">
<stop stop-color="#FF9085"/>
<stop offset="1" stop-color="#FB6FBB"/>
</linearGradient>
<clipPath id="clip0_160_1227">
<rect y="0.30072" width="460" height="460" rx="20" fill="white"/>
</clipPath>
</defs>
</svg>
